<svg width="40" height="41" viewBox="0 0 40 41" fill="none" xmlns="http://www.w3.org/2000/svg">
<path d="M14.9999 8.54167H11.6666C9.82564 8.54167 8.33325 10.0714 8.33325 11.9583V32.4583C8.33325 34.3453 9.82564 35.875 11.6666 35.875H28.3333C30.1742 35.875 31.6666 34.3453 31.6666 32.4583V11.9583C31.6666 10.0714 30.1742 8.54167 28.3333 8.54167H24.9999M14.9999 8.54167C14.9999 10.4286 16.4923 11.9583 18.3333 11.9583H21.6666C23.5075 11.9583 24.9999 10.4286 24.9999 8.54167M14.9999 8.54167C14.9999 6.65469 16.4923 5.125 18.3333 5.125H21.6666C23.5075 5.125 24.9999 6.65469 24.9999 8.54167M19.9999 20.5H24.9999M19.9999 27.3333H24.9999M14.9999 20.5H15.0166M14.9999 27.3333H15.0166" stroke="#818181" stroke-width="2" stroke-linecap="round"/>
</svg>
